<svg version="1.1" xmlns="http://www.w3.org/2000/svg" viewBox="0 0 1431.3519287109375 1676.8091578763597" width="2862.703857421875" height="3353.6183157527194" filter="invert(93%) hue-rotate(180deg)">
  <!-- svg-source:excalidraw -->
  
  <defs>
    <style class="style-fonts">
      @font-face {
        font-family: "Virgil";
        src: url("https://excalidraw.com/Virgil.woff2");
      }
      @font-face {
        font-family: "Cascadia";
        src: url("https://excalidraw.com/Cascadia.woff2");
      }
    </style>
    
  </defs>
  <rect x="0" y="0" width="1431.3519287109375" height="1676.8091578763597" fill="#ffffff"></rect><g stroke-linecap="round" transform="translate(520.0781860351562 319.0781732712485) rotate(0 125.5579833984375 68.75735473632812)"><path d="M32 0 M32 0 C86.48 1.3, 143.91 0.2, 219.12 0 M32 0 C93.47 0.64, 153.92 1.29, 219.12 0 M219.12 0 C242.42 -1.75, 252.01 9, 251.12 32 M219.12 0 C241.97 -0.88, 252.92 9.06, 251.12 32 M251.12 32 C253.17 60.93, 252.38 90.91, 251.12 105.51 M251.12 32 C251.22 51.26, 251.38 71.37, 251.12 105.51 M251.12 105.51 C251.96 125.66, 241.11 137.56, 219.12 137.51 M251.12 105.51 C251.07 126.02, 241.22 139.42, 219.12 137.51 M219.12 137.51 C177.96 137.81, 136.71 137.22, 32 137.51 M219.12 137.51 C165.26 136.47, 111.72 136.51, 32 137.51 M32 137.51 C9.3 137.52, -0.48 127.62, 0 105.51 M32 137.51 C10.74 138.54, -1.06 126.55, 0 105.51 M0 105.51 C-0.4 80.17, -1.47 57.02, 0 32 M0 105.51 C-0.39 78.65, -1.33 52.63, 0 32 M0 32 C1.01 9.52, 10.87 -1.41, 32 0 M0 32 C-0.93 12.32, 9.42 -0.25, 32 0" stroke="#f08c00" stroke-width="1" fill="none"></path></g><g transform="translate(570.5221939086914 365.3355280075766) rotate(0 75.11397552490234 22.5)"><text x="75.11397552490234" y="0" font-family="Virgil, Segoe UI Emoji" font-size="36px" fill="#f08c00" text-anchor="middle" style="white-space: pre;" direction="ltr" dominant-baseline="text-before-edge">Grafana</text></g><g stroke-linecap="round" transform="translate(10 590.2087885056235) rotate(0 125.5579833984375 68.75735473632812)"><path d="M32 0 M32 0 C88.49 1.64, 146.19 -1.11, 219.12 0 M32 0 C87.47 1.78, 142.4 0.2, 219.12 0 M219.12 0 C240.88 -0.19, 249.67 11.99, 251.12 32 M219.12 0 C241.61 -1.32, 251.35 9.04, 251.12 32 M251.12 32 C251.43 52.57, 249.88 71.55, 251.12 105.51 M251.12 32 C251.71 47.85, 251.51 63.84, 251.12 105.51 M251.12 105.51 C251.25 126.65, 242.02 136.41, 219.12 137.51 M251.12 105.51 C253.04 126.51, 241.29 137.12, 219.12 137.51 M219.12 137.51 C147.97 139.56, 81.94 138, 32 137.51 M219.12 137.51 C170.05 135.62, 119.93 136.78, 32 137.51 M32 137.51 C9.38 137.44, 1.42 125.66, 0 105.51 M32 137.51 C8.46 135.83, -2.15 125.13, 0 105.51 M0 105.51 C1.22 79.79, -1.57 53.08, 0 32 M0 105.51 C0.83 76.69, -0.49 47.41, 0 32 M0 32 C0.78 10.78, 8.69 -0.16, 32 0 M0 32 C-0.88 9.71, 10.91 -2.01, 32 0" stroke="#2f9e44" stroke-width="1" fill="none"></path></g><g transform="translate(60.444007873535156 613.9661432419516) rotate(0 75.11397552490234 45)"><text x="75.11397552490234" y="0" font-family="Virgil, Segoe UI Emoji" font-size="36px" fill="#2f9e44" text-anchor="middle" style="white-space: pre;" direction="ltr" dominant-baseline="text-before-edge">Grafana</text><text x="75.11397552490234" y="45" font-family="Virgil, Segoe UI Emoji" font-size="36px" fill="#2f9e44" text-anchor="middle" style="white-space: pre;" direction="ltr" dominant-baseline="text-before-edge">Loki</text></g><g stroke-linecap="round" transform="translate(1109.4711303710938 589.5197321091391) rotate(0 125.5579833984375 68.75735473632812)"><path d="M32 0 M32 0 C90.64 -3.04, 146.66 -2.35, 219.12 0 M32 0 C103.8 -1.64, 175.16 -2.47, 219.12 0 M219.12 0 C240.23 -0.3, 251.92 8.9, 251.12 32 M219.12 0 C240.7 0.64, 251.5 10.23, 251.12 32 M251.12 32 C250.86 48.74, 248.91 63.88, 251.12 105.51 M251.12 32 C250.94 56.48, 251.5 79.54, 251.12 105.51 M251.12 105.51 C252.56 128.35, 241.45 136.04, 219.12 137.51 M251.12 105.51 C248.85 124.78, 238.23 138.75, 219.12 137.51 M219.12 137.51 C145.76 139.36, 74.81 137.71, 32 137.51 M219.12 137.51 C147.59 136.99, 73.66 137.44, 32 137.51 M32 137.51 C12.04 137.43, 0.82 128.08, 0 105.51 M32 137.51 C8.62 135.5, 1.27 127.31, 0 105.51 M0 105.51 C0.67 81.56, 1.12 58.62, 0 32 M0 105.51 C-0.1 89.1, -1.12 73.58, 0 32 M0 32 C1.92 9.16, 12.07 -1.04, 32 0 M0 32 C-1.17 10.83, 9.45 1.85, 32 0" stroke="#2f9e44" stroke-width="1" fill="none"></path></g><g transform="translate(1159.915138244629 613.2770868454672) rotate(0 75.11397552490234 45)"><text x="75.11397552490234" y="0" font-family="Virgil, Segoe UI Emoji" font-size="36px" fill="#2f9e44" text-anchor="middle" style="white-space: pre;" direction="ltr" dominant-baseline="text-before-edge">Grafana</text><text x="75.11397552490234" y="45" font-family="Virgil, Segoe UI Emoji" font-size="36px" fill="#2f9e44" text-anchor="middle" style="white-space: pre;" direction="ltr" dominant-baseline="text-before-edge">Tempo</text></g><g stroke-linecap="round" transform="translate(525.4746704101562 596.6609369431235) rotate(0 125.5579833984375 68.75735473632812)"><path d="M32 0 M32 0 C84.23 0.27, 138.31 -2.44, 219.12 0 M32 0 C89.81 1.1, 147.38 0.61, 219.12 0 M219.12 0 C241.61 0.04, 249.88 10.31, 251.12 32 M219.12 0 C239.37 1.74, 249.8 10.74, 251.12 32 M251.12 32 C252.64 60.91, 251.03 88.76, 251.12 105.51 M251.12 32 C250 54.34, 251.18 77.66, 251.12 105.51 M251.12 105.51 C249.19 126.98, 239.43 137.24, 219.12 137.51 M251.12 105.51 C252.44 127.9, 241.18 139.54, 219.12 137.51 M219.12 137.51 C156.86 137.5, 97.35 137.48, 32 137.51 M219.12 137.51 C155.74 135.98, 90.97 136, 32 137.51 M32 137.51 C8.85 138.19, -1.75 126.39, 0 105.51 M32 137.51 C10.16 139.31, 0.17 128.77, 0 105.51 M0 105.51 C-1.91 77.64, 0.35 52.73, 0 32 M0 105.51 C0.13 87.33, -0.74 68.86, 0 32 M0 32 C-0.67 12.37, 11.86 0.21, 32 0 M0 32 C-0.06 9.95, 8.81 0.32, 32 0" stroke="#2f9e44" stroke-width="1" fill="none"></path></g><g transform="translate(551.2766876220703 642.9182916794516) rotate(0 99.75596618652344 22.5)"><text x="99.75596618652344" y="0" font-family="Virgil, Segoe UI Emoji" font-size="36px" fill="#2f9e44" text-anchor="middle" style="white-space: pre;" direction="ltr" dominant-baseline="text-before-edge">Prometheus</text></g><g stroke-linecap="round" transform="translate(1060.3519287109375 936.6481500778891) rotate(0 180.5 69.5)"><path d="M32 0 M32 0 C145.37 1.35, 261.78 1.59, 329 0 M32 0 C112.12 -1.3, 191.54 -0.75, 329 0 M329 0 C349.3 -0.99, 361.84 11.7, 361 32 M329 0 C349.16 2.2, 360.04 12.38, 361 32 M361 32 C359.68 52.99, 361.12 69.01, 361 107 M361 32 C362.08 49.76, 362.3 65.58, 361 107 M361 107 C361.75 127.7, 348.73 138.46, 329 139 M361 107 C358.94 128.98, 349.12 139.44, 329 139 M329 139 C246.24 137.76, 162.17 140.56, 32 139 M329 139 C246.91 137.58, 163.97 136.87, 32 139 M32 139 C8.97 139.61, 0.36 129, 0 107 M32 139 C9.66 137.66, 1.28 128.29, 0 107 M0 107 C-1.88 78.69, -1.01 51.99, 0 32 M0 107 C0.28 82.64, 0.81 57.68, 0 32 M0 32 C0.74 11.31, 9.03 -0.12, 32 0 M0 32 C-2.1 9.56, 12 -0.74, 32 0" stroke="#000000" stroke-width="1" fill="none"></path></g><g transform="translate(1114.1679916381836 961.1481500778891) rotate(0 126.6839370727539 45)"><text x="126.6839370727539" y="0" font-family="Virgil, Segoe UI Emoji" font-size="36px" fill="#000000" text-anchor="middle" style="white-space: pre;" direction="ltr" dominant-baseline="text-before-edge">OpenTelemetry</text><text x="126.6839370727539" y="45" font-family="Virgil, Segoe UI Emoji" font-size="36px" fill="#000000" text-anchor="middle" style="white-space: pre;" direction="ltr" dominant-baseline="text-before-edge">Collector</text></g><g stroke-linecap="round" transform="translate(24.61871337890625 954.215746513436) rotate(0 125.5579833984375 68.75735473632812)"><path d="M32 0 M32 0 C90 1.48, 146.98 0.84, 219.12 0 M32 0 C73.96 0.63, 115.97 1.56, 219.12 0 M219.12 0 C239.96 -1.08, 252.15 11.99, 251.12 32 M219.12 0 C238.31 2.2, 249.98 12.66, 251.12 32 M251.12 32 C251.01 48.24, 250.05 64.57, 251.12 105.51 M251.12 32 C250.56 57.66, 250.48 83.75, 251.12 105.51 M251.12 105.51 C252.71 125.35, 242.33 137.88, 219.12 137.51 M251.12 105.51 C252.79 127.58, 240.15 137.48, 219.12 137.51 M219.12 137.51 C169.31 137.32, 122.81 139.43, 32 137.51 M219.12 137.51 C165.56 137.64, 113.08 137.62, 32 137.51 M32 137.51 C9.53 138.37, -1.86 125.95, 0 105.51 M32 137.51 C12.75 135.4, -0.81 126.4, 0 105.51 M0 105.51 C-1.25 87.93, -1.02 67.36, 0 32 M0 105.51 C-0.49 76.87, 1.15 48.82, 0 32 M0 32 C1.27 10.57, 9.23 0.51, 32 0 M0 32 C1.19 11.04, 9.31 -1.11, 32 0" stroke="#000000" stroke-width="1" fill="none"></path></g><g transform="translate(69.26673126220703 1000.4731012497641) rotate(0 80.90996551513672 22.5)"><text x="80.90996551513672" y="0" font-family="Virgil, Segoe UI Emoji" font-size="36px" fill="#000000" text-anchor="middle" style="white-space: pre;" direction="ltr" dominant-baseline="text-before-edge">FluentBit</text></g><g stroke-linecap="round" transform="translate(274.502685546875 1300.3676630173422) rotate(0 125.5579833984375 68.75735473632812)"><path d="M0.57 0.01 C77.03 -1.62, 152.76 1.11, 250.9 1.38 M0.4 0.2 C56.28 -0.5, 113.95 0.06, 251.51 -0.34 M252.76 0.98 C249.95 30.73, 251.27 62.52, 250.21 137.04 M251.38 -0.97 C250.09 41.17, 250.33 80.89, 252.1 136.89 M249.84 136.62 C173.66 137.67, 97.78 137.73, -0.15 138.92 M251.23 137.09 C171.71 136, 91.35 136.97, 0.08 136.86 M-1.18 137.05 C-1.68 102.74, -1.51 67.58, 1.04 -1.74 M-0.47 136.53 C0.95 99.64, 0.11 62.2, 0.5 0.41" stroke="#1971c2" stroke-width="1" fill="none"></path></g><g transform="translate(341.03868865966797 1346.6250177536704) rotate(0 59.02198028564453 22.5)"><text x="59.02198028564453" y="0" font-family="Virgil, Segoe UI Emoji" font-size="36px" fill="#1971c2" text-anchor="middle" style="white-space: pre;" direction="ltr" dominant-baseline="text-before-edge">nodejs1</text></g><g stroke-linecap="round" transform="translate(779.2681274414062 1290.2322870407797) rotate(0 125.5579833984375 68.75735473632812)"><path d="M1.07 0.03 C65.43 -2.05, 130.9 0.36, 250.4 -0.22 M0.33 -0.65 C93.41 -0.34, 188.95 -0.38, 250.6 -0.13 M252.04 1.1 C249.57 43.36, 249 89.81, 250.82 135.96 M251.47 0.26 C251.93 48.63, 251.22 98.99, 251.55 137.12 M252.16 136.63 C164.13 136.25, 79.12 137.81, 1.04 137.69 M251.69 137.42 C184.85 135.98, 118.22 135.69, 0.74 138.19 M1.55 136.3 C0.63 99.31, 2.92 59.91, 0.95 -1.27 M0.75 136.99 C-0.83 96.95, 0.44 56.95, -0.86 -0.35" stroke="#1971c2" stroke-width="1" fill="none"></path></g><g transform="translate(837.8661346435547 1336.4896417771079) rotate(0 66.95997619628906 22.5)"><text x="66.95997619628906" y="0" font-family="Virgil, Segoe UI Emoji" font-size="36px" fill="#1971c2" text-anchor="middle" style="white-space: pre;" direction="ltr" dominant-baseline="text-before-edge">nodejs2</text></g><g stroke-linecap="round" transform="translate(566.6462106609501 1599.712422717389) rotate(0 70.54194504037912 29.02682905967754)"><path d="M69.29 -0.32 L139.98 31.61 L72.28 56.72 L-1.52 28.77" stroke="none" stroke-width="0" fill="#c6302b" fill-rule="evenodd"></path><path d="M70.83 0.89 C87.78 6.53, 107.83 15.33, 141.77 29.12 M70.62 -0.43 C97.96 11.74, 125.7 23.5, 140.18 29.02 M139.28 28.1 C115.04 40.78, 90.19 47.67, 72.16 56.09 M140.77 30.29 C125.24 36.14, 106.58 43.92, 71.79 57.48 M71.1 57.85 C51.65 50.04, 31.82 41.38, -1.86 29.64 M70.98 58.86 C53.68 51.8, 36.11 45, -0.2 29.15 M-1.62 31.25 C27.41 19.06, 50.27 8.33, 69.67 -0.66 M-0.1 29.64 C15.23 25.02, 30.14 18.31, 71.45 -0.46" stroke="#000000" stroke-width="1" fill="none"></path></g><g stroke-linecap="round"><g transform="translate(565.7686553637968 1628.4186065723375) rotate(0 70.29793934615543 18.386322181474497)" fill-rule="evenodd"><path d="M-0.63 0.57 L1.49 4.9 L1.25 9.67 L61.24 33.92 L71.11 38.63 L97.47 29.69 L132.61 13.71 L139.35 9.62 L139.7 0.34 L139.09 -0.89 L72.13 30.6 L-0.03 1.62" stroke="none" stroke-width="0" fill="#912626" fill-rule="evenodd"></path><path d="M0.54 -0.65 C0.34 0.31, -0.84 3.84, -0.39 5.63 C0.06 7.41, -1.74 7.21, 3.24 10.07 C8.21 12.93, 19.88 18.55, 29.45 22.79 C39.03 27.04, 53.76 32.94, 60.68 35.54 C67.61 38.13, 67.43 38.29, 71 38.37 C74.57 38.45, 75.01 38.42, 82.1 36 C89.19 33.58, 104.49 28.28, 113.53 23.83 C122.57 19.38, 131.72 12.36, 136.33 9.29 C140.94 6.22, 140.73 7.09, 141.17 5.41 C141.61 3.73, 141.35 -0.7, 138.95 -0.78 C136.55 -0.86, 136.82 0.55, 126.78 4.91 C116.74 9.26, 89.36 21.79, 78.69 25.37 C68.03 28.94, 76.1 30.71, 62.78 26.36 C49.47 22.02, 9.1 3.61, -1.18 -0.7 M-0.64 1.63 C-1.1 2.24, -2.09 2.8, -1.54 3.85 C-1 4.9, -2.53 5.13, 2.63 7.94 C7.79 10.76, 19.9 16.04, 29.42 20.75 C38.94 25.45, 52.62 33.45, 59.75 36.17 C66.87 38.89, 68.34 37.26, 72.17 37.06 C76 36.87, 75.9 37.18, 82.72 35.01 C89.54 32.84, 103.94 28.06, 113.11 24.05 C122.28 20.04, 132.89 14.13, 137.75 10.95 C142.61 7.76, 142.06 6.85, 142.27 4.96 C142.48 3.08, 141.32 -0.22, 139.01 -0.36 C136.7 -0.51, 138.38 -0.61, 128.43 4.08 C118.47 8.77, 89.83 24.03, 79.28 27.78 C68.74 31.52, 78.61 31.44, 65.15 26.54 C51.69 21.64, 9.54 3.06, -1.47 -1.62" stroke="#000000" stroke-width="1" fill="none"></path></g></g><mask></mask><g stroke-linecap="round"><g transform="translate(565.5492665395086 1606.6991129677995) rotate(0 69.60192687205961 19.588212335112303)" fill-rule="evenodd"><path d="M1.71 -1.96 L-1.91 6.88 L4.52 8.5 L59.31 34.82 L72.57 38.99 L96.16 30.28 L132.33 13.95 L138.63 6.83 L140.54 1.01 L139.74 2.1 L71.8 30.43 L-0.41 -0.3" stroke="none" stroke-width="0" fill="#912626" fill-rule="evenodd"></path><path d="M-0.39 0.66 C-0.43 1.67, -0.17 3.71, 0.3 5.38 C0.77 7.04, -2.71 7.81, 2.41 10.63 C7.53 13.45, 21.54 18.29, 31.01 22.28 C40.47 26.27, 52.47 31.68, 59.2 34.56 C65.94 37.44, 67.39 39.25, 71.41 39.56 C75.43 39.86, 76.67 39.38, 83.31 36.39 C89.95 33.39, 102.15 25.91, 111.28 21.59 C120.4 17.27, 133.26 13.35, 138.06 10.47 C142.85 7.59, 139.99 6.14, 140.03 4.32 C140.07 2.5, 140.21 -0.55, 138.31 -0.46 C136.4 -0.37, 138.85 0.31, 128.61 4.86 C118.37 9.42, 87.86 23.52, 76.88 26.87 C65.9 30.22, 75.36 29.36, 62.73 24.97 C50.11 20.59, 11.65 4.66, 1.13 0.56 M1.61 -0.03 C1.39 0.66, -0.45 2, -0.49 3.47 C-0.53 4.94, -4.01 5.44, 1.37 8.8 C6.75 12.16, 21.83 19.32, 31.79 23.63 C41.76 27.94, 54.32 32.14, 61.15 34.68 C67.99 37.22, 69.51 38.72, 72.8 38.88 C76.09 39.03, 74.15 38.03, 80.91 35.6 C87.66 33.17, 104.04 28.71, 113.34 24.29 C122.65 19.87, 132.19 11.98, 136.72 9.09 C141.25 6.2, 140.32 8.45, 140.54 6.96 C140.76 5.46, 140.19 0.61, 138.03 0.12 C135.86 -0.37, 137.81 -0.37, 127.56 4.01 C117.31 8.39, 86.93 23.01, 76.52 26.41 C66.1 29.81, 78.09 28.77, 65.07 24.42 C52.05 20.06, 9.16 4.07, -1.61 0.3" stroke="#000000" stroke-width="1" fill="none"></path></g></g><mask></mask><g stroke-linecap="round" transform="translate(565.768655363797 1577.3347626399864) rotate(0 70.54194504037912 29.02682905967754)"><path d="M69.48 -1.23 L139.86 29.28 L69.39 56.23 L-1.69 31.35" stroke="none" stroke-width="0" fill="#c6302b" fill-rule="evenodd"></path><path d="M71.69 -0.88 C91.55 9.56, 109.45 15.12, 140.23 29.93 M70.1 -0.98 C96.81 10.08, 120.84 19.86, 140.13 29.36 M142.24 28.04 C114.68 41.25, 91.71 48.77, 71.57 59.76 M141.88 29.42 C126.52 35.55, 113.1 41.39, 70.9 58.4 M69.14 57.7 C50.09 50.18, 33.49 42.11, 1.62 29.59 M70.8 57.2 C51.57 50.61, 30.14 41.11, 0.62 30.97 M-1.33 29.34 C17.77 22.81, 38.43 13.45, 70.28 1.4 M0.45 29.54 C27 17.63, 55.43 6.71, 71.64 -0.67" stroke="#000000" stroke-width="1" fill="none"></path></g><g stroke-linecap="round" transform="translate(564.8720034685787 1554.2669603906324) rotate(0 70.54194504037912 29.02682905967754)"><path d="M69.77 -0.72 L139.47 28.18 L69.31 59.4 L0.97 31.83" stroke="none" stroke-width="0" fill="#c6302b" fill-rule="evenodd"></path><path d="M72.63 1.71 C94.67 9.3, 115.82 19.74, 142.21 31.94 M71.53 0.01 C97.57 11.45, 124.28 23.38, 141.66 29.33 M139.93 31.88 C127.72 34.47, 112.91 42.59, 69.04 56.37 M140.91 29.87 C120.76 38.09, 99.01 46.83, 70.76 58.52 M69.81 58.35 C56.03 51.17, 38.84 44.07, -0.3 28.59 M71.62 58.74 C50.58 48.78, 31.89 42.7, -0.25 29.57 M-1.87 30.92 C19.4 21.61, 39.31 14.8, 72.93 1.89 M-0.86 29.84 C23.83 20.77, 49.55 8.94, 70.24 -0.61" stroke="#000000" stroke-width="1" fill="none"></path></g><g stroke-linecap="round"><g transform="translate(564.6526146442902 1583.631310718446) rotate(0 69.45203483927548 19.176872310328008)" fill-rule="evenodd"><path d="M-0.35 -0.25 L0.89 6.96 L2.74 10.34 L59.17 35.99 L70.25 37.02 L96 28.4 L133.11 14.82 L139.8 10.31 L140.49 1.9 L138.03 -0.09 L71.42 27.1 L1.23 1.38" stroke="none" stroke-width="0" fill="#912626" fill-rule="evenodd"></path><path d="M1.03 0.47 C1.04 1.05, -0.77 2.81, -0.45 4.45 C-0.14 6.09, -2.37 7.26, 2.89 10.33 C8.16 13.4, 21.87 18.95, 31.15 22.88 C40.43 26.81, 51.75 31.22, 58.57 33.89 C65.4 36.56, 68.25 38.83, 72.09 38.89 C75.94 38.95, 75.13 37.05, 81.65 34.24 C88.17 31.42, 101.81 26.1, 111.22 22 C120.63 17.9, 133.41 12.3, 138.1 9.65 C142.8 7, 139.37 7.77, 139.4 6.1 C139.43 4.42, 139.99 -0.41, 138.27 -0.39 C136.54 -0.37, 139.16 1.75, 129.05 6.23 C118.94 10.71, 88.31 23.47, 77.62 26.52 C66.94 29.56, 78.04 28.91, 64.93 24.49 C51.83 20.07, 9.65 4.21, -1.01 0.01 M0.1 -0.33 C-0.03 0.32, -1.97 4.27, -1.64 5.72 C-1.31 7.16, -2.89 5.82, 2.11 8.34 C7.1 10.87, 18.66 16.66, 28.35 20.88 C38.03 25.1, 53.22 30.84, 60.2 33.67 C67.17 36.49, 66.54 37.47, 70.18 37.85 C73.82 38.24, 74.85 38.75, 82.03 35.98 C89.21 33.22, 104.13 25.34, 113.25 21.26 C122.38 17.18, 132.41 14.05, 136.79 11.51 C141.18 8.96, 139.38 7.89, 139.58 6.01 C139.78 4.13, 139.86 0.21, 137.97 0.23 C136.08 0.24, 138.28 1.83, 128.23 6.1 C118.17 10.37, 88.23 22.33, 77.65 25.87 C67.08 29.41, 77.91 31.74, 64.77 27.34 C51.62 22.94, 9.78 3.99, -1.21 -0.54" stroke="#000000" stroke-width="1" fill="none"></path></g></g><mask></mask><g stroke-linecap="round" transform="translate(590.1190645560039 1576.2927832823343) rotate(0 15.228165450596862 6.710716978229129)"><path d="M12.64 -0.28 C15.61 -0.42, 19.74 0.71, 22.53 1.53 C25.33 2.34, 28.35 3.21, 29.42 4.62 C30.48 6.03, 29.96 8.51, 28.91 10.01 C27.87 11.51, 25.93 13, 23.16 13.62 C20.39 14.24, 15.74 14.32, 12.32 13.7 C8.9 13.09, 4.72 11.23, 2.64 9.91 C0.57 8.6, -0.51 7.02, -0.14 5.83 C0.23 4.65, 1.95 3.87, 4.85 2.79 C7.76 1.71, 14.49 -0.23, 17.28 -0.65 C20.07 -1.07, 21.57 0.18, 21.58 0.28 M9.27 2.05 C12.06 1.09, 15.11 -0.4, 18.18 -0.52 C21.25 -0.64, 25.67 -0.07, 27.68 1.32 C29.69 2.72, 30.29 5.98, 30.25 7.87 C30.21 9.75, 29.8 11.48, 27.43 12.64 C25.06 13.8, 19.64 14.66, 16.01 14.82 C12.38 14.98, 8.42 14.73, 5.66 13.61 C2.9 12.48, 0.2 9.44, -0.55 8.07 C-1.3 6.69, -0.35 6.48, 1.19 5.35 C2.72 4.23, 7.17 2.12, 8.65 1.32 C10.13 0.53, 9.84 0.52, 10.08 0.58" stroke="none" stroke-width="0" fill="#ffff"></path><path d="M15.84 -0.9 C18.68 -1.08, 21.44 1.04, 23.83 2.03 C26.22 3.01, 29.54 3.85, 30.18 5.01 C30.82 6.18, 29.34 7.59, 27.65 9.01 C25.96 10.43, 23.06 13.03, 20.06 13.55 C17.05 14.07, 12.49 12.85, 9.6 12.12 C6.72 11.39, 4.43 10.11, 2.76 9.19 C1.09 8.27, -0.88 7.91, -0.39 6.6 C0.1 5.29, 2.88 2.29, 5.7 1.33 C8.52 0.38, 14.72 1.2, 16.51 0.87 C18.31 0.54, 16.53 -0.74, 16.47 -0.64 M11.74 0.35 C14.68 0, 18.36 0.4, 21.15 1.07 C23.94 1.75, 27.16 3.44, 28.49 4.41 C29.82 5.38, 29.88 5.75, 29.13 6.88 C28.39 8.02, 26.45 9.9, 24.02 11.21 C21.58 12.52, 17.74 14.49, 14.52 14.75 C11.3 15.02, 7.17 14.04, 4.72 12.79 C2.27 11.54, 0.33 8.93, -0.21 7.25 C-0.75 5.57, -0.33 4.08, 1.47 2.71 C3.27 1.34, 8.86 -0.79, 10.6 -1 C12.34 -1.21, 11.94 1.32, 11.91 1.44" stroke="#000000" stroke-width="1" fill="none"></path></g><g stroke-linecap="round"><g transform="translate(618.2782654146499 1596.6420187813014) rotate(0 13.217981216546832 -0.13518563613547485)" fill-rule="evenodd"><path d="M0.97 1.83 L18.6 5.58 L26.52 -7.77 L-0.23 0.92" stroke="none" stroke-width="0" fill="#ffff" fill-rule="evenodd"></path><path d="M1.13 1.94 C6.88 -0.08, 8.26 4.5, 19.57 5.71 M0.58 -0.67 C3.1 2.07, 7.16 2.29, 20.49 7 M18.17 5.34 C21.35 4.27, 22.35 -0.42, 26.15 -5.07 M19.38 6.86 C21.21 2.07, 23.58 -1.47, 26.44 -5.22 M26.03 -7.27 C18.13 -4.57, 8.96 -1.19, 1.38 -1.16 M26.08 -6.29 C20.41 -4.98, 14.51 -3.97, 0.46 -0.36 M0 0 C0 0, 0 0, 0 0 M0 0 C0 0, 0 0, 0 0" stroke="#000000" stroke-width="1" fill="none"></path></g></g><mask></mask><g stroke-linecap="round"><g transform="translate(627.9313736833337 1563.1294538250386) rotate(0 7.957303795433518 7.325462385433639)" fill-rule="evenodd"><path d="M0.28 -1.58 L2.97 5.99 L-5.39 9.39 L5.31 11.74 L7.26 16.2 L8.19 9.44 L21.05 8.93 L9.89 3.66 L13.57 -2.53 L7.6 3.62 L0.74 -0.34" stroke="none" stroke-width="0" fill="#ffff" fill-rule="evenodd"></path><path d="M0.52 -0.53 C0.17 1.88, 1.47 2.91, 1.9 4.8 M-0.28 0.17 C0.32 1.11, 1.45 2.68, 2.33 5.44 M2.43 6.01 C-0.83 6.76, -3.2 8.98, -4.64 9.45 M2.18 4.97 C-0.04 6.54, -2.28 8.56, -4.69 9.87 M-4.86 9.36 C-3.01 10.36, 0.76 9.56, 3.27 10.91 M-4.77 9.25 C-1.39 9.5, 2.39 10.08, 3.93 10.21 M4.31 10.7 C5.48 11.77, 7.5 14.09, 9.43 16.5 M3.75 10.23 C4.76 11.37, 5.88 13.29, 9.01 16.37 M8.18 15.95 C9.49 14.91, 10.07 12.3, 10.74 8.89 M8.8 16.34 C9.39 13.59, 10.18 10.81, 10.3 9.46 M9.45 9.56 C13.9 9.34, 16.53 8.33, 20.04 7.81 M10.08 9.67 C13.24 9.04, 17.32 8.86, 20.23 8.23 M20.77 8.25 C17.44 6.99, 16.14 5.47, 10.84 5.29 M20.31 8.03 C18.61 6.88, 16.13 6.79, 11.94 5.31 M11.55 5.68 C12.7 2.3, 13.38 0.22, 13.77 -1.25 M11.55 5.2 C12.41 3.09, 13.1 1.95, 14.58 -1.53 M14.74 -1.85 C11.85 -0.61, 9.57 1.58, 7.4 1.91 M14.34 -1.66 C12.37 -0.17, 9.89 0.95, 6.61 1.92 M6.1 2.63 C4.71 1.6, 2.81 0.82, -0.46 -0.12 M6.79 2.37 C5.5 1.93, 3.8 0.96, 0.01 -0.04 M0 0 C0 0, 0 0, 0 0 M0 0 C0 0, 0 0, 0 0" stroke="#000000" stroke-width="1" fill="none"></path></g></g><mask></mask><g stroke-linecap="round"><g transform="translate(667.9038189267321 1575.7428221571954) rotate(0 -0.030074220311917088 6.435516117301177)" fill-rule="evenodd"><path d="M-0.55 0.04 L17.33 4.9 L-0.74 14.06 L-18.07 4.91 L0.56 -0.71 L1.98 1.88" stroke="none" stroke-width="0" fill="#912626" fill-rule="evenodd"></path><path d="M-1.74 0.95 C6.61 2.03, 11.53 3.69, 15.33 7.6 M-0.87 -0.51 C4.6 1.85, 7.31 3.22, 17.21 5.71 M15.4 6.26 C12.53 9.16, 9.17 9.37, -0.03 12.72 M16.29 6.04 C10.62 9.52, 4.55 11.72, -0.85 13.03 M-2.12 14.22 C-3.09 10.63, -9.28 11.18, -14.79 6.15 M-0.94 12.36 C-4.31 11.06, -8.85 9.37, -15.86 7.41 M-17.27 5.06 C-10.28 2.93, -2.08 2.45, -1.18 -1.35 M-17.17 5.78 C-13.24 5.67, -8.13 4.31, -0.42 -0.42 M0 0 C0 0, 0 0, 0 0 M0 0 C0 0, 0 0, 0 0 M0 0 C0 0, 0 0, 0 0 M0 0 C0 0, 0 0, 0 0" stroke="#000000" stroke-width="1" fill="none"></path></g></g><mask></mask><g stroke-linecap="round"><g transform="translate(666.2115971498217 1575.3455264181725) rotate(0 -0.11372585882088515 6.313359098418005)"><path d="M0.01 -0.54 C-1.25 1.51, -0.83 6.28, -0.55 11.93 M0.62 0.31 C-0.22 4.9, 0.67 8.78, -0.22 13.17" stroke="#000000" stroke-width="1" fill="none"></path></g></g><mask></mask><g stroke-linecap="round"><g transform="translate(916.8118336772204 1556.4849968579592) rotate(0 -14.212255917303992 48.721426977345345)"><path d="M-0.15 0.67 C-1.78 0.17, -7.49 -2.84, -10.48 -3.23 C-13.47 -3.61, -15.61 -2.15, -18.11 -1.64 C-20.6 -1.13, -20.09 0.16, -25.47 -0.18 C-30.84 -0.52, -43.59 -4.93, -50.35 -3.7 C-57.12 -2.46, -63.83 1.23, -66.07 7.21 C-68.32 13.18, -65.79 23.68, -63.84 32.15 C-61.9 40.62, -57.89 51.52, -54.42 58.02 C-50.94 64.52, -46.99 71.31, -42.99 71.17 C-39 71.03, -33.56 59.33, -30.45 57.18 C-27.34 55.03, -26.06 57.96, -24.33 58.26 C-22.61 58.56, -20.02 58.08, -20.1 59 C-20.19 59.91, -23.74 62.76, -24.83 63.74 C-25.92 64.72, -24.99 64.08, -26.65 64.89 C-28.3 65.69, -34.93 67.77, -34.75 68.57 C-34.57 69.37, -28.18 69.41, -25.58 69.67 C-22.98 69.93, -21.02 69.96, -19.15 70.12 C-17.27 70.28, -15.56 67.37, -14.31 70.62 C-13.05 73.87, -13.35 84.57, -11.6 89.64 C-9.85 94.71, -7.44 99.83, -3.81 101.05 C-0.19 102.27, 7.26 99.58, 10.15 96.95 C13.04 94.33, 12.84 89.71, 13.54 85.31 C14.24 80.91, 13.69 73.7, 14.34 70.54 C14.99 67.38, 15.35 67.37, 17.43 66.36 C19.5 65.36, 23.89 65.8, 26.77 64.52 C29.66 63.23, 34.84 59.8, 34.75 58.64 C34.66 57.48, 28.69 58.39, 26.23 57.53 C23.78 56.67, 19.49 56.21, 20.03 53.49 C20.57 50.78, 26.54 46.43, 29.47 41.27 C32.4 36.1, 36.23 28.67, 37.6 22.51 C38.96 16.35, 39.88 8.57, 37.68 4.3 C35.48 0.03, 28.78 -1.88, 24.4 -3.11 C20.01 -4.34, 15.27 -3.47, 11.37 -3.06 C7.47 -2.66, 2.72 -1.03, 1.02 -0.66 M-1.69 -0.03 C-3.41 -0.32, -8.57 -1.68, -11.4 -1.75 C-14.22 -1.83, -16.4 -0.86, -18.66 -0.48 C-20.91 -0.09, -19.91 1.03, -24.93 0.54 C-29.94 0.05, -42.06 -4.37, -48.75 -3.42 C-55.43 -2.46, -62.11 0.56, -65.04 6.26 C-67.96 11.96, -67.98 22.25, -66.29 30.8 C-64.61 39.34, -59.13 50.51, -54.93 57.55 C-50.73 64.58, -45.29 73.16, -41.1 73.01 C-36.91 72.85, -32.56 59.44, -29.81 56.6 C-27.05 53.76, -26 55.71, -24.55 55.97 C-23.09 56.24, -20.99 56.98, -21.08 58.21 C-21.18 59.43, -24.17 62.25, -25.11 63.31 C-26.05 64.36, -25.14 63.77, -26.74 64.54 C-28.33 65.3, -34.99 66.86, -34.69 67.89 C-34.4 68.92, -27.86 70.17, -24.97 70.72 C-22.07 71.26, -19.46 71.13, -17.33 71.16 C-15.19 71.19, -13.45 67.73, -12.16 70.92 C-10.86 74.12, -10.52 85.51, -9.55 90.34 C-8.59 95.16, -9.53 98.92, -6.38 99.87 C-3.23 100.82, 6.03 98.18, 9.35 96.05 C12.67 93.92, 12.72 90.92, 13.54 87.08 C14.35 83.24, 13.83 76.52, 14.22 72.98 C14.62 69.45, 13.61 67.32, 15.91 65.88 C18.21 64.43, 24.74 65.62, 28.01 64.33 C31.28 63.03, 35.61 58.78, 35.52 58.1 C35.43 57.42, 29.91 60.76, 27.47 60.24 C25.03 59.73, 20.43 58.46, 20.85 55 C21.28 51.54, 27.44 44.56, 30 39.48 C32.55 34.4, 35.01 30.68, 36.18 24.52 C37.35 18.36, 38.48 6.82, 37.01 2.52 C35.54 -1.78, 31.91 -0.35, 27.34 -1.27 C22.77 -2.2, 14.21 -3.29, 9.59 -3.05 C4.97 -2.8, 1.26 -0.62, -0.4 0.17" stroke="#000000" stroke-width="1" fill="none"></path></g></g><mask></mask><g stroke-linecap="round"><g transform="translate(893.300854185919 1557.1942421356266) rotate(0 -0.20442771211105537 33.25607675597962)"><path d="M0.06 -0.12 C-1.02 0.93, -4.95 3.67, -6.63 6.98 C-8.3 10.28, -9.39 14.99, -9.98 19.72 C-10.56 24.46, -9.83 31.23, -10.13 35.38 C-10.42 39.53, -12.15 41.95, -11.75 44.62 C-11.36 47.29, -9.3 49.71, -7.77 51.4 C-6.24 53.1, -4.39 53.83, -2.58 54.78 C-0.76 55.74, 1.21 56.3, 3.14 57.11 C5.07 57.92, 7.84 58.24, 9 59.63 C10.16 61.02, 10.13 64.21, 10.13 65.46 C10.13 66.7, 9.49 66.6, 9 67.12 M-1.36 -1.23 C-2.55 -0.06, -5.84 4.71, -7.36 8.36 C-8.87 12.01, -9.93 15.99, -10.45 20.66 C-10.97 25.33, -10.55 32.3, -10.46 36.37 C-10.38 40.45, -10.11 42.77, -9.94 45.1 C-9.77 47.43, -10.26 48.99, -9.45 50.35 C-8.64 51.72, -7 52.31, -5.08 53.31 C-3.17 54.3, -0.63 55.52, 2.02 56.32 C4.68 57.13, 9.47 56.61, 10.86 58.12 C12.25 59.63, 10.54 63.79, 10.36 65.39 C10.17 66.99, 9.99 67.22, 9.75 67.74" stroke="#000000" stroke-width="1" fill="none"></path></g></g><mask></mask><g stroke-linecap="round"><g transform="translate(916.4160627450301 1556.4937505557514) rotate(0 10.379999710893799 26.887272496227524)"><path d="M0.41 -0.29 C1.45 -0.19, 4.13 -0.9, 6.3 0.46 C8.47 1.82, 11.49 4.2, 13.42 7.9 C15.35 11.59, 17 17.94, 17.87 22.65 C18.74 27.36, 18.03 32.18, 18.65 36.14 C19.27 40.1, 21.68 43.52, 21.59 46.39 C21.49 49.27, 18.67 52.13, 18.07 53.39 M-0.83 -1.49 C0.1 -1.24, 2.89 -0.15, 5.64 1.62 C8.4 3.38, 13.71 5.4, 15.73 9.1 C17.74 12.81, 17.41 19.28, 17.74 23.85 C18.08 28.42, 17.39 32.96, 17.74 36.52 C18.1 40.08, 19.7 42.1, 19.85 45.22 C19.99 48.35, 19.12 53.88, 18.62 55.26" stroke="#000000" stroke-width="1" fill="none"></path></g></g><mask></mask><g stroke-linecap="round"><g transform="translate(932.1593641027075 1623.2682079518518) rotate(0 -1.6272546958302883 -22.8628568883114)"><path d="M0.56 -0.72 C0.36 -1.74, -1.03 -5.08, -0.77 -6.4 C-0.5 -7.72, 0.83 -8.01, 2.15 -8.64 C3.47 -9.28, 6.96 -9.45, 7.14 -10.19 C7.31 -10.93, 4.58 -11.57, 3.21 -13.09 C1.84 -14.6, 0.2 -17.06, -1.08 -19.27 C-2.36 -21.47, -2.94 -23.25, -4.48 -26.33 C-6.03 -29.42, -10.07 -34.37, -10.37 -37.79 C-10.68 -41.2, -8.29 -45.49, -6.32 -46.82 C-4.36 -48.16, -0.24 -45.81, 1.4 -45.82 M-0.61 1.51 C-0.49 0.7, 0.48 -3.52, 1.36 -4.97 C2.24 -6.43, 4.18 -6.54, 4.67 -7.23 C5.16 -7.92, 4.69 -8.17, 4.29 -9.1 C3.89 -10.03, 2.93 -11.49, 2.25 -12.82 C1.58 -14.16, 1.27 -14.59, 0.24 -17.09 C-0.8 -19.59, -2.55 -24.36, -3.97 -27.81 C-5.38 -31.25, -7.68 -34.89, -8.28 -37.74 C-8.88 -40.59, -9.22 -43.56, -7.56 -44.91 C-5.9 -46.27, 0.27 -45.69, 1.66 -45.88" stroke="#000000" stroke-width="1" fill="none"></path></g></g><mask></mask><g stroke-linecap="round"><g transform="translate(883.1082276558218 1583.1867051828876) rotate(0 8.507536566636645 14.086693347879873)"><path d="M-1.11 -0.21 C-0.41 -0.53, 2.36 -2.08, 4.8 -2.64 C7.25 -3.2, 11.49 -4.33, 13.58 -3.57 C15.67 -2.8, 16.92 -0.75, 17.36 1.95 C17.8 4.66, 16.81 9.38, 16.21 12.67 C15.62 15.97, 14.55 18.5, 13.79 21.72 C13.03 24.94, 11.7 30.53, 11.65 32 M0.5 -1.37 C1.55 -1.41, 4.99 -0.86, 7.14 -1.01 C9.29 -1.16, 11.55 -2.92, 13.38 -2.26 C15.21 -1.61, 17.91 0.45, 18.12 2.93 C18.33 5.41, 15.15 9.68, 14.65 12.62 C14.14 15.55, 15.56 17.48, 15.08 20.56 C14.59 23.63, 12.12 29.49, 11.76 31.04" stroke="#000000" stroke-width="1" fill="none"></path></g></g><mask></mask><g stroke-linecap="round"><g transform="translate(928.2954502437478 1578.8934038309949) rotate(358.18735542929625 0.3116623435596466 1.8038670860703405)"><path d="M-0.71 0.18 C-0.8 0.45, -1.94 0.91, -1.63 1.4 C-1.33 1.88, 0.44 3.37, 1.12 3.09 C1.8 2.81, 2.68 0.29, 2.46 -0.26 C2.23 -0.82, 0.34 -0.41, -0.24 -0.24 M1.11 -0.78 C1.06 -0.29, -1.98 2.08, -2.02 2.92 C-2.06 3.77, 0.1 4.7, 0.87 4.28 C1.64 3.86, 2.45 1.1, 2.61 0.39 C2.77 -0.31, 2.29 0.07, 1.83 0.02" stroke="#000000" stroke-width="1" fill="none"></path></g></g><mask></mask><g stroke-linecap="round"><g transform="translate(893.2787165469254 1581.8091911415613) rotate(14.802012269513854 0.6584909159041672 1.1868621418500425)"><path d="M1.08 -0.02 C0.9 0.13, -1.54 0.72, -1.81 1.1 C-2.07 1.49, -1.11 2.08, -0.51 2.29 C0.09 2.5, 1.4 2.62, 1.8 2.38 C2.2 2.13, 2.04 1.35, 1.88 0.84 C1.72 0.33, 1.3 -0.68, 0.83 -0.69 M0.18 -1.08 C-0.01 -0.76, -1.98 1.8, -2.24 2.51 C-2.5 3.22, -2.07 3.02, -1.37 3.16 C-0.68 3.3, 1.1 3.61, 1.92 3.35 C2.74 3.09, 4.01 1.92, 3.53 1.62 C3.05 1.32, -0.25 1.86, -0.98 1.56" stroke="#000000" stroke-width="1" fill="none"></path></g></g><mask></mask><g stroke-linecap="round"><g transform="translate(536.9289922848366 35.98882062565349) rotate(0 102.91813389264053 0.7611573314875386)"><path d="M-1.12 0.55 C33.5 0.66, 172.28 0.14, 206.96 0.25 M0.49 -0.21 C34.99 0.13, 171.54 1.81, 205.78 1.73" stroke="#000000" stroke-width="1" fill="none"></path></g></g><mask></mask><g stroke-linecap="round" transform="translate(543.5896353775922 20.684801885426282) rotate(0 4.061608798212319 4.002031029977957)"><path d="M4.28 0.52 C5.05 0.09, 6.07 -0.26, 6.53 0.07 C6.98 0.39, 6.88 1.44, 7.02 2.46 C7.15 3.47, 7.38 5.44, 7.33 6.16 C7.29 6.88, 7.53 6.6, 6.75 6.79 C5.96 6.99, 3.68 7.43, 2.61 7.33 C1.55 7.24, 0.92 6.93, 0.35 6.23 C-0.22 5.53, -0.76 3.8, -0.81 3.11 C-0.85 2.42, -0.75 2.48, 0.09 2.12 C0.94 1.75, 3.66 1.34, 4.27 0.92 C4.89 0.5, 3.82 -0.15, 3.76 -0.39 M5.1 -0.82 C6.05 -1.3, 7.22 -0.73, 7.93 -0.27 C8.64 0.19, 9.47 0.95, 9.35 1.94 C9.22 2.93, 7.58 4.7, 7.19 5.68 C6.8 6.65, 7.64 7.2, 7.03 7.79 C6.42 8.38, 4.63 9.35, 3.53 9.24 C2.43 9.13, 0.96 7.95, 0.44 7.1 C-0.07 6.25, 0.33 5.32, 0.43 4.14 C0.53 2.95, 0.61 0.66, 1.03 0.01 C1.45 -0.63, 2.43 0.16, 2.94 0.27 C3.45 0.38, 4.12 0.65, 4.08 0.66" stroke="#000000" stroke-width="1" fill="none"></path></g><g stroke-linecap="round" transform="translate(555.2865808355064 20.684801885426282) rotate(0 4.061608798212319 4.002031029977957)"><path d="M6.39 -0.01 C6.85 0.22, 6.79 1.31, 6.96 2.32 C7.12 3.32, 7.39 5.28, 7.38 6.02 C7.37 6.75, 7.65 6.49, 6.88 6.71 C6.11 6.94, 3.84 7.42, 2.77 7.36 C1.69 7.29, 1.04 7.03, 0.45 6.34 C-0.15 5.66, -0.73 3.95, -0.8 3.26 C-0.88 2.58, -0.75 2.61, 0 2.24 C0.74 1.86, 2.66 1.32, 3.67 1.01 C4.69 0.7, 5.51 0.46, 6.08 0.37 C6.66 0.27, 7.11 0.23, 7.13 0.44 M7.13 -0.73 C7.92 -0.5, 8.97 0.16, 9.03 1.08 C9.1 2.01, 7.71 3.78, 7.51 4.82 C7.31 5.86, 8.35 6.57, 7.83 7.34 C7.32 8.1, 5.58 9.32, 4.44 9.4 C3.31 9.48, 1.71 8.53, 1.04 7.8 C0.37 7.08, 0.53 6.23, 0.43 5.05 C0.33 3.87, 0.17 1.48, 0.43 0.71 C0.7 -0.06, 1.11 0.39, 2.03 0.43 C2.95 0.46, 5.52 0.93, 5.94 0.91 C6.36 0.89, 4.76 0.35, 4.52 0.31" stroke="#000000" stroke-width="1" fill="none"></path></g><g stroke-linecap="round" transform="translate(566.5829009857675 20.684801885426282) rotate(0 4.061608798212319 4.002031029977957)"><path d="M4.12 -0.06 C4.77 0.29, 5.98 1.8, 6.75 2.4 C7.52 3, 8.84 2.92, 8.76 3.54 C8.68 4.16, 7.07 5.44, 6.27 6.12 C5.47 6.8, 4.81 7.56, 3.94 7.62 C3.07 7.67, 1.81 6.74, 1.04 6.45 C0.28 6.15, -0.63 6.36, -0.67 5.85 C-0.71 5.33, 0.41 4.33, 0.81 3.35 C1.21 2.37, 0.82 0.57, 1.74 -0.04 C2.66 -0.66, 5.44 -0.68, 6.32 -0.34 C7.21 0, 6.98 1.67, 7.07 2.03 M4.29 -1 C4.75 -1.11, 4.44 -0.33, 5.23 0.23 C6.03 0.79, 8.52 1.35, 9.09 2.38 C9.66 3.4, 9.12 5.43, 8.64 6.4 C8.16 7.36, 6.96 7.79, 6.21 8.16 C5.46 8.52, 5.03 8.99, 4.16 8.6 C3.29 8.2, 1.81 6.45, 0.98 5.79 C0.14 5.14, -0.87 5.24, -0.87 4.67 C-0.87 4.09, 0.5 3.09, 0.95 2.32 C1.4 1.55, 1.65 0.4, 1.83 0.05 C2 -0.3, 1.7 0.33, 2 0.2" stroke="#000000" stroke-width="1" fill="none"></path></g><g stroke-linecap="round"><g transform="translate(529.8527660295465 83.93913415441875) rotate(0 109.84559744957721 1.0599801657305647)"><path d="M0.54 0.54 C0.3 -4.76, -0.24 -20.64, -0.3 -30.65 C-0.36 -40.67, -0.59 -52.99, 0.16 -59.55 C0.91 -66.12, 1.68 -67.71, 4.2 -70.03 C6.73 -72.36, 4.66 -73.03, 15.32 -73.52 C25.99 -74.01, 47.4 -72.97, 68.17 -72.96 C88.94 -72.96, 117.18 -73.43, 139.96 -73.48 C162.74 -73.52, 191.76 -73.92, 204.86 -73.24 C217.97 -72.57, 215.86 -71.76, 218.59 -69.41 C221.33 -67.06, 221.18 -66.15, 221.26 -59.15 C221.34 -52.15, 219.56 -37.73, 219.08 -27.42 C218.6 -17.1, 218.28 -7.15, 218.38 2.74 C218.48 12.63, 219.3 22.23, 219.7 31.9 C220.11 41.56, 220.86 53.96, 220.82 60.73 C220.79 67.5, 221.71 70.37, 219.49 72.52 C217.28 74.66, 219.44 73.33, 207.52 73.59 C195.61 73.86, 171.21 74.16, 148.03 74.12 C124.84 74.09, 90.47 73.3, 68.43 73.36 C46.39 73.42, 26.93 74.56, 15.78 74.49 C4.63 74.42, 4.08 75.34, 1.54 72.95 C-1 70.56, 0.83 67.39, 0.52 60.16 C0.22 52.93, -0.09 39.56, -0.3 29.57 C-0.51 19.58, -0.8 5.07, -0.71 0.21 M-0.63 -0.22 C-1.18 -4.9, -1.53 -19.93, -1.54 -29.65 C-1.55 -39.38, -1.79 -51.5, -0.7 -58.59 C0.38 -65.68, 1.99 -69.68, 4.96 -72.19 C7.92 -74.69, 6.39 -73.85, 17.09 -73.61 C27.8 -73.36, 48.65 -71.05, 69.19 -70.73 C89.74 -70.41, 117.42 -71.72, 140.37 -71.67 C163.33 -71.63, 194.1 -70.65, 206.92 -70.46 C219.75 -70.26, 215.35 -72.25, 217.35 -70.49 C219.35 -68.73, 218.65 -67.26, 218.94 -59.91 C219.23 -52.55, 218.92 -36.73, 219.1 -26.37 C219.28 -16.01, 219.84 -7.42, 220.02 2.25 C220.21 11.91, 220.12 21.94, 220.22 31.59 C220.33 41.25, 221.23 52.93, 220.65 60.19 C220.07 67.45, 219.3 72.81, 216.76 75.18 C214.23 77.54, 216.55 74.42, 205.46 74.37 C194.37 74.31, 173.18 74.92, 150.22 74.82 C127.27 74.72, 90.31 74.3, 67.72 73.77 C45.13 73.25, 25.63 72.05, 14.66 71.68 C3.7 71.31, 4.44 73.63, 1.94 71.55 C-0.57 69.48, -0.05 65.91, -0.39 59.23 C-0.73 52.54, 0 41.39, -0.12 31.43 C-0.24 21.47, -0.84 4.73, -1.11 -0.54" stroke="#000000" stroke-width="1" fill="none"></path></g></g><mask></mask><g stroke-linecap="round"><g transform="translate(661.4003133328054 18.87146052166861) rotate(0 1.384066884103504 4.946645967552399)"><path d="M-0.55 -1.03 C10.31 -1.23, 52.89 -1.32, 65.75 -0.66 C78.61 -0.01, 75.08 1.45, 76.59 2.89 C78.11 4.34, 76.69 6.98, 74.82 7.99 C72.96 9, 77.95 8.79, 65.41 8.94 C52.87 9.09, 20.85 8.95, -0.43 8.9 C-21.71 8.86, -50.34 8.43, -62.29 8.66 C-74.24 8.88, -70.44 11.41, -72.14 10.26 C-73.83 9.1, -73.78 3.44, -72.47 1.75 C-71.15 0.06, -76.13 0.43, -64.25 0.11 C-52.36 -0.2, -11.95 -0.28, -1.15 -0.14 M1.36 1.05 C12 0.94, 52.21 0.54, 64.7 0.52 C77.2 0.51, 74.68 -0.39, 76.34 0.95 C77.99 2.3, 76.17 7.28, 74.65 8.61 C73.13 9.95, 79.53 8.54, 67.22 8.94 C54.9 9.34, 22.33 10.77, 0.76 11.01 C-20.82 11.26, -49.97 10.57, -62.22 10.44 C-74.47 10.31, -70.85 11.34, -72.74 10.22 C-74.63 9.1, -75.06 5.47, -73.57 3.72 C-72.07 1.97, -75.8 0.21, -63.78 -0.28 C-51.76 -0.77, -11.97 0.55, -1.43 0.78" stroke="#000000" stroke-width="1" fill="none"></path></g></g><mask></mask><g mask="url(#mask-2JIV1wq4jCPGq6_EfrOfF)" stroke-linecap="round"><g transform="translate(638.3738403320312 158.29652654273286) rotate(0 0.7874733412428441 74.79685624875128)"><path d="M-0.7 0.98 C-1.2 58.69, -1.44 115.59, 2.55 149.69 M0.18 -0.09 C-0.75 36.79, -0.74 74.08, 1.81 149.49" stroke="#1e1e1e" stroke-width="1" fill="none"></path></g><g transform="translate(638.3738403320312 158.29652654273286) rotate(0 0.7874733412428441 74.79685624875128)"><path d="M-9.94 122.58 C-6 132.58, -2.52 141.83, 2.73 150.23 M-9.06 121.51 C-6.58 128.67, -4.25 136.18, 2 150.03" stroke="#1e1e1e" stroke-width="1" fill="none"></path></g><g transform="translate(638.3738403320312 158.29652654273286) rotate(0 0.7874733412428441 74.79685624875128)"><path d="M10.57 122 C6.44 132.37, 1.84 141.84, 2.73 150.23 M11.45 120.93 C8.88 128.08, 6.16 135.73, 2 150.03" stroke="#1e1e1e" stroke-width="1" fill="none"></path></g></g><mask id="mask-2JIV1wq4jCPGq6_EfrOfF"><rect x="0" y="0" fill="#fff" width="740.0016479492188" height="407.2409235153891"></rect><rect x="520.8177947998047" y="215.268725029061" fill="#000" width="236.73989868164062" height="35" opacity="1"></rect></mask><g transform="translate(520.8177947998047 215.268725029061) rotate(0 118.3435188734694 17.824657762423158)"><text x="118.36994934082031" y="0" font-family="Virgil, Segoe UI Emoji" font-size="28px" fill="#1e1e1e" text-anchor="middle" style="white-space: pre;" direction="ltr" dominant-baseline="text-before-edge">request &amp; render</text></g><g mask="url(#mask-N8AGn4b-fduWE6GnE6pUW)" stroke-linecap="round"><g transform="translate(500.49201891860116 398.87266790015474) rotate(0 -174.942309914028 87.30624197665247)"><path d="M-0.59 -0.27 C-117.43 58.49, -233.06 114.8, -350.15 174.27 M0.26 -0.39 C-122.56 61.2, -244.87 122.15, -349.37 175" stroke="#1e1e1e" stroke-width="1" fill="none"></path></g><g transform="translate(500.49201891860116 398.87266790015474) rotate(0 -174.942309914028 87.30624197665247)"><path d="M-329.82 152.7 C-337.35 162.15, -344.32 166.75, -351.06 174.07 M-328.36 152.49 C-336.04 160.39, -343.73 167.78, -349.74 175.33" stroke="#1e1e1e" stroke-width="1" fill="none"></path></g><g transform="translate(500.49201891860116 398.87266790015474) rotate(0 -174.942309914028 87.30624197665247)"><path d="M-320.59 171.03 C-331 174.39, -341.02 172.93, -351.06 174.07 M-319.13 170.82 C-329.93 172.33, -340.84 173.32, -349.74 175.33" stroke="#1e1e1e" stroke-width="1" fill="none"></path></g></g><mask id="mask-N8AGn4b-fduWE6GnE6pUW"><rect x="0" y="0" fill="#fff" width="949.6541156324679" height="673.6778131638266"></rect><rect x="261.7769907643046" y="468.7752405319907" fill="#000" width="128.26795959472656" height="35" opacity="1"></rect></mask><g transform="translate(261.7769907643046 468.7752405319907) rotate(0 63.772718240268546 17.403669344816535)"><text x="64.13397979736328" y="0" font-family="Virgil, Segoe UI Emoji" font-size="28px" fill="#1e1e1e" text-anchor="middle" style="white-space: pre;" direction="ltr" dominant-baseline="text-before-edge">get data</text></g><g mask="url(#mask-B6SPhAzZSkhOaWQkWXt59)" stroke-linecap="round"><g transform="translate(640.4790649414062 469.8848138962485) rotate(0 1.0394842374078053 57.959267819300294)"><path d="M-0.76 1.76 C0.33 35.43, 0.1 68.23, 1.23 115.91 M-0.53 0.01 C0.22 23.08, 2.06 46.4, 2.84 113.71" stroke="#1e1e1e" stroke-width="1" fill="none"></path></g><g transform="translate(640.4790649414062 469.8848138962485) rotate(0 1.0394842374078053 57.959267819300294)"><path d="M-8.71 87.48 C-5.43 95.7, -3.32 103.02, 1.23 115.26 M-8.48 85.73 C-6.18 91.26, -2.72 96.99, 2.84 113.07" stroke="#1e1e1e" stroke-width="1" fill="none"></path></g><g transform="translate(640.4790649414062 469.8848138962485) rotate(0 1.0394842374078053 57.959267819300294)"><path d="M11.81 87.1 C9.03 95.34, 5.09 102.78, 1.23 115.26 M12.04 85.34 C10.15 90.82, 9.44 96.63, 2.84 113.07" stroke="#1e1e1e" stroke-width="1" fill="none"></path></g></g><mask id="mask-B6SPhAzZSkhOaWQkWXt59"><rect x="0" y="0" fill="#fff" width="743.3255518061919" height="684.2383600388266"></rect><rect x="577.768328576436" y="509.56158696753755" fill="#000" width="128.26795959472656" height="35" opacity="1"></rect></mask><g transform="translate(577.768328576436 509.56158696753755) rotate(0 63.75022060237825 18.28249474801123)"><text x="64.13397979736328" y="0" font-family="Virgil, Segoe UI Emoji" font-size="28px" fill="#1e1e1e" text-anchor="middle" style="white-space: pre;" direction="ltr" dominant-baseline="text-before-edge">get data</text></g><g mask="url(#mask-NSV89I0adh_wxSLZ_n4Go)" stroke-linecap="round"><g transform="translate(789.9618265451911 393.0508794830041) rotate(0 216.29697123990593 89.75854984254943)"><path d="M0.88 0.32 C96.25 41.39, 193.62 81.29, 432.98 179.2 M-0.39 0.41 C120.74 51.05, 242.87 101.44, 432.87 178.7" stroke="#1e1e1e" stroke-width="1" fill="none"></path></g><g transform="translate(789.9618265451911 393.0508794830041) rotate(0 216.29697123990593 89.75854984254943)"><path d="M404.82 178.26 C408.65 179.53, 415.37 179.24, 433.57 180.49 M402.04 178.45 C410.41 178.26, 420.28 179.27, 433.32 179.39" stroke="#1e1e1e" stroke-width="1" fill="none"></path></g><g transform="translate(789.9618265451911 393.0508794830041) rotate(0 216.29697123990593 89.75854984254943)"><path d="M412.57 159.25 C414.49 164.79, 419.47 168.77, 433.57 180.49 M409.79 159.45 C415.91 164.56, 423.61 170.9, 433.32 179.39" stroke="#1e1e1e" stroke-width="1" fill="none"></path></g></g><mask id="mask-NSV89I0adh_wxSLZ_n4Go"><rect x="0" y="0" fill="#fff" width="1322.6266964657461" height="671.439623466561"></rect><rect x="942.1602817081055" y="464.74525147478244" fill="#000" width="128.26795959472656" height="35" opacity="1"></rect></mask><g transform="translate(942.1602817081052 464.74525147478244) rotate(0 64.09851607699181 18.064177850771102)"><text x="64.13397979736328" y="0" font-family="Virgil, Segoe UI Emoji" font-size="28px" fill="#1e1e1e" text-anchor="middle" style="white-space: pre;" direction="ltr" dominant-baseline="text-before-edge">get data</text></g><g mask="url(#mask-a5vkKO2YlAX1a5ggeHAMG)" stroke-linecap="round"><g transform="translate(1092.1697387695312 666.2906171707982) rotate(0 -152.70474769369878 -1.0853398073168137)"><path d="M0.09 -0.94 C-108.91 -0.38, -215.5 -0.78, -305.5 -2.48 M-0.2 0.3 C-65.25 0.28, -130.21 0.64, -303.95 -2.24" stroke="#1e1e1e" stroke-width="1" fill="none"></path></g><g transform="translate(1092.1697387695312 666.2906171707982) rotate(0 -152.70474769369878 -1.0853398073168137)"><path d="M-275.49 -13.4 C-286.92 -8.36, -294.89 -4.06, -305.35 -1.85 M-275.9 -11.69 C-282.33 -10.59, -288.64 -7.19, -303.21 -1.52" stroke="#1e1e1e" stroke-width="1" fill="none"></path></g><g transform="translate(1092.1697387695312 666.2906171707982) rotate(0 -152.70474769369878 -1.0853398073168137)"><path d="M-275.78 7.12 C-286.91 4.87, -294.77 1.89, -305.35 -1.85 M-276.19 8.82 C-282.56 5.57, -288.81 4.6, -303.21 -1.52" stroke="#1e1e1e" stroke-width="1" fill="none"></path></g></g><mask id="mask-a5vkKO2YlAX1a5ggeHAMG"><rect x="0" y="0" fill="#fff" width="1496.6619262695312" height="769.0559416370536"></rect><rect x="891.7776641845703" y="629.9079549376706" fill="#000" width="96.29196166992188" height="70" opacity="1"></rect></mask><g transform="translate(891.7776641845703 629.9079549376706) rotate(0 47.68732689126216 35.29732242581076)"><text x="48.14598083496094" y="0" font-family="Virgil, Segoe UI Emoji" font-size="28px" fill="#1e1e1e" text-anchor="middle" style="white-space: pre;" direction="ltr" dominant-baseline="text-before-edge">push</text><text x="48.14598083496094" y="35" font-family="Virgil, Segoe UI Emoji" font-size="28px" fill="#1e1e1e" text-anchor="middle" style="white-space: pre;" direction="ltr" dominant-baseline="text-before-edge">metrics</text></g><g mask="url(#mask-kfeFqPISDuBWhUFBlN3K4)" stroke-linecap="round"><g transform="translate(1220.4655144301423 916.8475824509362) rotate(0 -1.1949440041175876 -85.62943695858121)"><path d="M0.94 -1.67 C-0.2 -62.1, 0.13 -124.9, -3.33 -169.99 M0.73 -0.37 C0.99 -61.53, -0.08 -125.09, -1.28 -170.89" stroke="#1e1e1e" stroke-width="1" fill="none"></path></g><g transform="translate(1220.4655144301423 916.8475824509362) rotate(0 -1.1949440041175876 -85.62943695858121)"><path d="M10.55 -144.61 C6.44 -152.42, 3.33 -162.53, -3.13 -169.15 M10.34 -143.3 C6.36 -152.56, 1.89 -164.13, -1.07 -170.04" stroke="#1e1e1e" stroke-width="1" fill="none"></path></g><g transform="translate(1220.4655144301423 916.8475824509362) rotate(0 -1.1949440041175876 -85.62943695858121)"><path d="M-9.97 -144.15 C-6.56 -151.97, -2.15 -162.24, -3.13 -169.15 M-10.18 -142.85 C-6.74 -152.08, -3.78 -163.82, -1.07 -170.04" stroke="#1e1e1e" stroke-width="1" fill="none"></path></g></g><mask id="mask-kfeFqPISDuBWhUFBlN3K4"><rect x="0" y="0" fill="#fff" width="1321.9453749791137" height="1188.57847844703"></rect><rect x="1101.95762456093" y="795.9821344528893" fill="#000" width="235.53591918945312" height="70" opacity="1"></rect></mask><g transform="translate(1101.95762456093 795.9821344528891) rotate(0 117.31294586509466 35.236011039465666)"><text x="117.76795959472656" y="0" font-family="Virgil, Segoe UI Emoji" font-size="28px" fill="#1e1e1e" text-anchor="middle" style="white-space: pre;" direction="ltr" dominant-baseline="text-before-edge">export</text><text x="117.76795959472656" y="35" font-family="Virgil, Segoe UI Emoji" font-size="28px" fill="#1e1e1e" text-anchor="middle" style="white-space: pre;" direction="ltr" dominant-baseline="text-before-edge">metrics &amp; traces</text></g><g mask="url(#mask-eoq-t8_JICT6CB--KA0AJ)" stroke-linecap="round"><g transform="translate(141.04168341616196 933.073412529061) rotate(0 -2.593960821702467 -92.68431756459165)"><path d="M0.36 -0.39 C-0.34 -38.41, -2.26 -73.93, -4.59 -185.66 M0.9 0.3 C-3.34 -72.92, -6.89 -143.66, -5.92 -183.95" stroke="#1e1e1e" stroke-width="1" fill="none"></path></g><g transform="translate(141.04168341616196 933.073412529061) rotate(0 -2.593960821702467 -92.68431756459165)"><path d="M4.85 -156.21 C2.39 -162.7, -0.47 -166.71, -4.76 -184.87 M5.39 -155.52 C0.87 -167.46, -4.5 -176.92, -6.1 -183.16" stroke="#1e1e1e" stroke-width="1" fill="none"></path></g><g transform="translate(141.04168341616196 933.073412529061) rotate(0 -2.593960821702467 -92.68431756459165)"><path d="M-15.67 -156.1 C-14 -162.66, -12.73 -166.68, -4.76 -184.87 M-15.13 -155.4 C-11.62 -167.46, -8.97 -176.96, -6.1 -183.16" stroke="#1e1e1e" stroke-width="1" fill="none"></path></g></g><mask id="mask-eoq-t8_JICT6CB--KA0AJ"><rect x="0" y="0" fill="#fff" width="246.79165630904913" height="1217.814684501717"></rect><rect x="52.682733957023174" y="823.2027765427329" fill="#000" width="170.96792602539062" height="35" opacity="1"></rect></mask><g transform="translate(52.682733957023174 823.2027765427329) rotate(0 85.76498863743632 17.186318421736473)"><text x="85.48396301269531" y="0" font-family="Virgil, Segoe UI Emoji" font-size="28px" fill="#1e1e1e" text-anchor="middle" style="white-space: pre;" direction="ltr" dominant-baseline="text-before-edge">forward logs</text></g><g mask="url(#mask-iFl-i7TSLQ7Rhba_YnVi9)" stroke-linecap="round"><g transform="translate(314.8272010296346 1279.8276544724204) rotate(0 -29.29558334327419 -86.09397367201746)"><path d="M0.77 -0.95 C-18.68 -57.77, -40.13 -115.19, -58.2 -171.24 M-0.65 -0.94 C-16.69 -48.68, -33.64 -98.42, -59.36 -169.91" stroke="#1e1e1e" stroke-width="1" fill="none"></path></g><g transform="translate(314.8272010296346 1279.8276544724204) rotate(0 -29.29558334327419 -86.09397367201746)"><path d="M-39.47 -147.75 C-45.26 -155.12, -53.36 -163.34, -58.75 -171.66 M-40.9 -147.74 C-45.49 -153.2, -51.03 -160.84, -59.91 -170.33" stroke="#1e1e1e" stroke-width="1" fill="none"></path></g><g transform="translate(314.8272010296346 1279.8276544724204) rotate(0 -29.29558334327419 -86.09397367201746)"><path d="M-58.81 -140.87 C-58.11 -150.43, -59.72 -160.96, -58.75 -171.66 M-60.23 -140.86 C-59.26 -148.21, -59.24 -157.84, -59.91 -170.33" stroke="#1e1e1e" stroke-width="1" fill="none"></path></g></g><mask id="mask-iFl-i7TSLQ7Rhba_YnVi9"><rect x="0" y="0" fill="#fff" width="473.64485214527417" height="1549.326616874764"></rect><rect x="199.93441245911936" y="1177.5781732712485" fill="#000" width="170.96792602539062" height="35" opacity="1"></rect></mask><g transform="translate(199.93441245911936 1177.5781732712485) rotate(0 85.59720522724103 16.15550752915442)"><text x="85.48396301269531" y="0" font-family="Virgil, Segoe UI Emoji" font-size="28px" fill="#1e1e1e" text-anchor="middle" style="white-space: pre;" direction="ltr" dominant-baseline="text-before-edge">forward logs</text></g><g mask="url(#mask-1YGAKnMNZNbxZ-3HH2lDy)" stroke-linecap="round"><g transform="translate(757.4700346387444 1317.9722467575766) rotate(0 -239.02393026015568 -112.21184194374746)"><path d="M0.49 0.19 C-110.69 -53.45, -222.35 -104.45, -478.54 -224.62 M-0.05 -0.06 C-119.58 -55.39, -238.59 -110.7, -478.31 -223.86" stroke="#1e1e1e" stroke-width="1" fill="none"></path></g><g transform="translate(757.4700346387444 1317.9722467575766) rotate(0 -239.02393026015568 -112.21184194374746)"><path d="M-447.21 -220.65 C-455.05 -223.73, -461.91 -221.16, -478.42 -225.47 M-448.56 -221.3 C-456.47 -222.44, -463.39 -221.88, -477.86 -223.58" stroke="#1e1e1e" stroke-width="1" fill="none"></path></g><g transform="translate(757.4700346387444 1317.9722467575766) rotate(0 -239.02393026015568 -112.21184194374746)"><path d="M-455.96 -202.08 C-461.57 -209.48, -466.39 -211.25, -478.42 -225.47 M-457.3 -202.73 C-463.05 -208.53, -467.8 -212.6, -477.86 -223.58" stroke="#1e1e1e" stroke-width="1" fill="none"></path></g></g><mask id="mask-1YGAKnMNZNbxZ-3HH2lDy"><rect x="0" y="0" fill="#fff" width="1335.965558352997" height="1641.945965376698"></rect><rect x="432.7383097689226" y="1188.485387448016" fill="#000" width="170.96792602539062" height="35" opacity="1"></rect></mask><g transform="translate(432.7383097689226 1188.485387448016) rotate(0 85.70779460966594 17.275017365813255)"><text x="85.48396301269531" y="0" font-family="Virgil, Segoe UI Emoji" font-size="28px" fill="#1e1e1e" text-anchor="middle" style="white-space: pre;" direction="ltr" dominant-baseline="text-before-edge">forward logs</text></g><g mask="url(#mask-KsPtLCAN3JdOiSxxk6Nv2)" stroke-linecap="round"><g transform="translate(529.112731933594 1323.2374801412511) rotate(0 253.13009387031195 -144.52948424628278)"><path d="M-0.03 -0.35 C144.9 -84.14, 289.08 -166.9, 506.14 -289.12 M0.35 0.07 C173.89 -99.1, 348.04 -198.88, 506.29 -289" stroke="#1e1e1e" stroke-width="1" fill="none"></path></g><g transform="translate(529.112731933594 1323.2374801412511) rotate(0 253.13009387031195 -144.52948424628278)"><path d="M486.81 -267 C493.79 -273.45, 496.65 -279.4, 506.06 -288.7 M487.76 -265.96 C493.19 -273.59, 500.19 -282.33, 506.46 -288.4" stroke="#1e1e1e" stroke-width="1" fill="none"></path></g><g transform="translate(529.112731933594 1323.2374801412511) rotate(0 253.13009387031195 -144.52948424628278)"><path d="M476.64 -284.83 C486.69 -286.2, 492.46 -287.04, 506.06 -288.7 M477.59 -283.78 C486.51 -285.28, 497.01 -287.89, 506.46 -288.4" stroke="#1e1e1e" stroke-width="1" fill="none"></path></g></g><mask id="mask-KsPtLCAN3JdOiSxxk6Nv2"><rect x="0" y="0" fill="#fff" width="1135.3419799804688" height="1712.4839110158355"></rect><rect x="682.5193939208982" y="1143.6142647039587" fill="#000" width="199.41592407226562" height="70" opacity="1"></rect></mask><g transform="translate(682.5193939208984 1143.6142647039587) rotate(0 99.72343188300749 35.093731191009624)"><text x="99.70796203613281" y="0" font-family="Virgil, Segoe UI Emoji" font-size="28px" fill="#1e1e1e" text-anchor="middle" style="white-space: pre;" direction="ltr" dominant-baseline="text-before-edge">emit metrics &amp;</text><text x="99.70796203613281" y="35" font-family="Virgil, Segoe UI Emoji" font-size="28px" fill="#1e1e1e" text-anchor="middle" style="white-space: pre;" direction="ltr" dominant-baseline="text-before-edge">traces</text></g><g mask="url(#mask-WPGEZR-bxPDfGWkfN3PMC)" stroke-linecap="round"><g transform="translate(1045.1707153320312 1324.287319661983) rotate(0 47.27794858903303 -115.07156734544287)"><path d="M-0.56 1.26 C26.59 -67.43, 53.98 -133.76, 94.78 -230.15 M0.47 -0.52 C26.26 -66.99, 53.73 -135.07, 95.12 -231.41" stroke="#1e1e1e" stroke-width="1" fill="none"></path></g><g transform="translate(1045.1707153320312 1324.287319661983) rotate(0 47.27794858903303 -115.07156734544287)"><path d="M92.88 -199.9 C94.4 -211.84, 95.04 -220.25, 95.51 -230.73 M94.13 -202.08 C93.24 -210.34, 93.54 -219.94, 95.92 -232.26" stroke="#1e1e1e" stroke-width="1" fill="none"></path></g><g transform="translate(1045.1707153320312 1324.287319661983) rotate(0 47.27794858903303 -115.07156734544287)"><path d="M73.98 -207.91 C81 -217.41, 87.09 -223.52, 95.51 -230.73 M75.24 -210.09 C79.9 -215.88, 85.72 -223.14, 95.92 -232.26" stroke="#1e1e1e" stroke-width="1" fill="none"></path></g></g><mask id="mask-WPGEZR-bxPDfGWkfN3PMC"><rect x="0" y="0" fill="#fff" width="1239.6299295855629" height="1654.9938110234207"></rect><rect x="992.692360422664" y="1173.9340739812642" fill="#000" width="199.41592407226562" height="70" opacity="1"></rect></mask><g transform="translate(992.692360422664 1173.9340739812642) rotate(0 99.75630349840026 35.281678335275956)"><text x="99.70796203613281" y="0" font-family="Virgil, Segoe UI Emoji" font-size="28px" fill="#1e1e1e" text-anchor="middle" style="white-space: pre;" direction="ltr" dominant-baseline="text-before-edge">emit metrics &amp;</text><text x="99.70796203613281" y="35" font-family="Virgil, Segoe UI Emoji" font-size="28px" fill="#1e1e1e" text-anchor="middle" style="white-space: pre;" direction="ltr" dominant-baseline="text-before-edge">traces</text></g><g stroke-linecap="round"><g transform="translate(461.2703023200554 1454.337847343514) rotate(0 63.37414984392569 53.62060585426548)"><path d="M-1.33 -0.87 C26.55 22.78, 55.68 43.32, 126.86 108.11 M-0.01 -0.21 C34.06 28.82, 66.42 57.55, 128.08 107.3" stroke="#1e1e1e" stroke-width="1" fill="none"></path></g><g transform="translate(461.2703023200554 1454.337847343514) rotate(0 63.37414984392569 53.62060585426548)"><path d="M98.44 96.5 C104.75 99.85, 112.67 99.67, 126.46 107.62 M99.76 97.16 C108.16 100.6, 114.03 103.45, 127.69 106.81" stroke="#1e1e1e" stroke-width="1" fill="none"></path></g><g transform="translate(461.2703023200554 1454.337847343514) rotate(0 63.37414984392569 53.62060585426548)"><path d="M111.44 80.62 C115.06 87.39, 120.23 90.57, 126.46 107.62 M112.77 81.29 C117.59 88.96, 120.03 96.01, 127.69 106.81" stroke="#1e1e1e" stroke-width="1" fill="none"></path></g></g><mask></mask><g stroke-linecap="round"><g transform="translate(840.2726899255417 1448.051714531014) rotate(0 -76.34944403300346 59.11223534340752)"><path d="M-0.79 -1.48 C-49.31 37.17, -96.86 75.58, -151.62 118.59 M-0.68 -0.79 C-59.67 47.56, -118.54 93.17, -152.02 119.71" stroke="#1e1e1e" stroke-width="1" fill="none"></path></g><g transform="translate(840.2726899255417 1448.051714531014) rotate(0 -76.34944403300346 59.11223534340752)"><path d="M-137.01 92.72 C-142.41 102.12, -147.31 111.03, -152.24 119 M-136.9 93.41 C-142.91 105.16, -147.93 113.53, -152.64 120.11" stroke="#1e1e1e" stroke-width="1" fill="none"></path></g><g transform="translate(840.2726899255417 1448.051714531014) rotate(0 -76.34944403300346 59.11223534340752)"><path d="M-124.31 108.84 C-133.62 113.15, -142.52 116.99, -152.24 119 M-124.2 109.53 C-135.41 114.82, -145.46 116.78, -152.64 120.11" stroke="#1e1e1e" stroke-width="1" fill="none"></path></g></g><mask></mask><g stroke-linecap="round"><g transform="translate(909.6185913085938 1447.236528984139) rotate(0 -2.4993302579969168 49.515731221064925)"><path d="M-0.48 -1.24 C-1.48 29.22, -2.25 61.39, -3.79 99.53 M-0.75 -0.32 C-1.07 36.45, -2.29 71.01, -4.52 100.27" stroke="#1e1e1e" stroke-width="1" fill="none"></path></g><g transform="translate(909.6185913085938 1447.236528984139) rotate(0 -2.4993302579969168 49.515731221064925)"><path d="M-13.47 70.25 C-11.53 79.51, -8.66 90.41, -4.64 99.89 M-13.75 71.17 C-9.48 82.37, -6.34 91.36, -5.38 100.63" stroke="#1e1e1e" stroke-width="1" fill="none"></path></g><g transform="translate(909.6185913085938 1447.236528984139) rotate(0 -2.4993302579969168 49.515731221064925)"><path d="M7.01 71.54 C2.82 80.28, -0.45 90.8, -4.64 99.89 M6.74 72.46 C3.64 83.19, -0.58 91.72, -5.38 100.63" stroke="#1e1e1e" stroke-width="1" fill="none"></path></g></g><mask></mask></svg>